<?xml version="1.0" standalone="no"?>
<!DOCTYPE svg PUBLIC "-//W3C//DTD SVG 20010904//EN"
 "http://www.w3.org/TR/2001/REC-SVG-20010904/DTD/svg10.dtd">
<svg version="1.0" xmlns="http://www.w3.org/2000/svg"
 width="1024.000000pt" height="1024.000000pt" viewBox="0 0 1024.000000 1024.000000"
 preserveAspectRatio="xMidYMid meet">

<g transform="translate(0.000000,1024.000000) scale(0.100000,-0.100000)"
fill="#000000" stroke="none">
<path d="M0 5120 l0 -5120 5120 0 5120 0 0 5120 0 5120 -5120 0 -5120 0 0
-5120z m5735 2575 c101 -26 182 -73 277 -164 48 -46 85 -88 81 -94 -3 -5 -2
-7 4 -4 5 3 193 -180 419 -406 225 -227 301 -306 169 -176 -391 385 -505 494
-518 494 -7 0 -12 7 -12 15 -1 8 -7 14 -14 12 -7 -1 -10 2 -7 6 3 5 -3 17 -13
26 -11 10 -22 13 -25 8 -3 -5 1 -15 9 -22 8 -7 12 -17 9 -22 -3 -5 -11 -2 -18
7 -6 9 -23 16 -36 17 -14 1 -31 6 -38 11 -8 7 -16 7 -23 0 -6 -6 -5 -10 3 -11
22 -3 63 -10 68 -12 3 -1 8 -2 13 -1 12 2 8 -6 -10 -20 -11 -10 -14 -10 -9 -1
4 6 2 12 -3 12 -6 0 -11 -4 -11 -10 0 -5 -11 -10 -25 -10 -16 0 -23 -4 -19
-13 3 -8 -3 -20 -13 -28 -16 -12 -17 -12 -7 1 6 9 7 28 3 45 -6 26 -14 18 -10
-10 1 -5 -8 1 -19 15 -18 22 -20 22 -11 3 15 -29 14 -38 -2 -25 -8 7 -18 7
-27 2 -8 -6 -10 -10 -4 -10 7 0 14 -6 17 -14 5 -11 0 -12 -23 -3 -16 6 -27 14
-24 19 3 4 -2 5 -10 2 -9 -3 -16 -13 -16 -21 0 -22 -25 -9 -28 15 -4 27 -40
26 -61 -2 -12 -15 -12 -19 0 -27 9 -6 3 -8 -18 -6 -19 1 -33 8 -33 15 0 15
-12 16 -28 0 -8 -8 -14 -4 -22 18 -8 21 -13 25 -19 15 -5 -8 -14 -10 -20 -7
-6 4 -11 0 -11 -8 0 -9 6 -16 13 -16 6 0 4 -5 -6 -11 -9 -6 -14 -15 -11 -21 4
-7 2 -8 -5 -4 -8 5 -9 12 -3 19 17 21 -19 62 -55 63 -18 1 -33 -2 -33 -8 0
-13 -103 -7 -112 6 -5 7 -8 7 -8 -1 0 -20 -30 -15 -31 5 -1 16 -2 16 -6 -1 -2
-9 -9 -15 -14 -12 -5 4 -9 1 -9 -5 0 -8 33 -10 110 -8 l109 3 -2 -445 -2 -445
-2 438 -3 437 -1023 -2 -1022 -3 -67 -33 c-75 -37 -127 -91 -155 -163 -17 -41
-18 -122 -23 -1109 l-5 -1065 -4 990 c-2 545 -7 965 -11 935 -4 -36 -9 -49
-13 -39 -5 9 -7 20 -6 25 1 5 1 19 0 32 -1 27 -16 29 -18 2 -1 -11 2 -20 6
-20 4 0 6 -13 5 -29 -1 -18 4 -32 12 -35 8 -3 14 -15 14 -26 0 -12 -4 -18 -10
-15 -5 3 -10 1 -10 -4 0 -6 -10 -11 -22 -12 -13 0 -17 -3 -10 -6 6 -2 9 -10 6
-16 -5 -9 -4 -9 6 0 23 21 40 3 40 -41 0 -25 -3 -36 -9 -28 -6 10 -10 10 -20
-2 -10 -12 -10 -23 -3 -45 9 -26 8 -29 -5 -24 -11 4 -14 2 -9 -5 4 -7 2 -12
-3 -12 -15 0 -14 23 1 38 8 8 8 12 1 12 -6 0 -16 -7 -23 -15 -7 -8 -16 -13
-20 -10 -10 6 -21 -21 -13 -29 4 -3 13 0 22 7 14 11 14 10 2 -5 -7 -10 -10
-25 -7 -34 5 -12 2 -15 -9 -10 -9 3 -18 -1 -21 -9 -4 -8 -16 -14 -28 -14 -17
1 -17 2 -3 6 9 2 15 9 12 14 -4 5 0 9 8 9 9 0 14 12 14 36 0 34 -1 35 -12 13
-7 -12 -20 -24 -29 -25 -15 -2 -15 0 -4 14 10 12 10 14 1 8 -7 -4 -13 -3 -13
3 0 5 3 11 8 14 4 2 1 2 -5 1 -7 -2 -13 2 -13 8 0 6 -3 9 -6 5 -3 -3 -1 -14 4
-23 14 -26 -2 -54 -28 -47 -16 4 -20 0 -20 -21 0 -22 -4 -26 -29 -26 -26 0
-28 3 -25 30 2 16 0 32 -5 34 -5 3 -8 -14 -7 -38 1 -25 -2 -42 -7 -39 -4 2 -6
18 -3 34 2 16 0 29 -4 29 -5 0 -7 9 -5 20 2 11 -1 20 -6 20 -6 0 -8 8 -4 19 3
12 0 21 -10 25 -21 8 -20 -32 3 -57 16 -19 16 -20 0 -14 -17 6 -18 -24 -21
-496 -1 -276 -2 -137 -2 308 l0 810 22 65 c69 202 242 374 446 443 60 20 85
21 682 27 1004 8 1628 3 1700 -15z m60 -375 c-3 -5 -12 -10 -18 -10 -7 0 -6 4
3 10 19 12 23 12 15 0z m-125 -25 c11 -13 10 -14 -4 -9 -9 3 -16 10 -16 15 0
13 6 11 20 -6z m158 -26 c-2 -25 -4 -28 -14 -15 -6 9 -17 16 -25 17 -10 0 -11
2 -1 6 6 2 10 8 8 12 -3 4 4 8 15 8 15 1 19 -4 17 -28z m-93 2 c3 -5 2 -12 -3
-15 -5 -3 -9 1 -9 9 0 17 3 19 12 6z m525 -495 c0 -10 -277 267 -300 299 -7
11 57 -50 143 -135 86 -85 157 -159 157 -164z m-318 202 c-3 -126 -12 -125
-12 2 0 57 3 100 7 96 4 -4 6 -48 5 -98z m353 -236 c-3 -3 -11 0 -18 7 -9 10
-8 11 6 5 10 -3 15 -9 12 -12z m50 -42 c3 -5 1 -10 -4 -10 -6 0 -11 5 -11 10
0 6 2 10 4 10 3 0 8 -4 11 -10z m-3105 -140 c0 -5 -2 -10 -4 -10 -3 0 -8 5
-11 10 -3 6 -1 10 4 10 6 0 11 -4 11 -10z m-34 -15 c-3 -8 0 -15 6 -15 6 0 8
-3 5 -7 -4 -3 -15 1 -25 10 -10 10 -22 14 -27 10 -4 -5 -5 -2 -1 5 11 18 50
16 42 -3z m-288 -49 c-1 -18 2 -38 6 -44 4 -7 1 -12 -7 -12 -11 0 -14 13 -14
49 1 27 5 47 9 45 4 -3 7 -20 6 -38z m172 34 c0 -5 -2 -10 -4 -10 -3 0 -8 5
-11 10 -3 6 -1 10 4 10 6 0 11 -4 11 -10z m-57 -25 c-7 -21 -12 -19 -10 4 0
11 5 18 9 15 4 -3 5 -11 1 -19z m157 11 c0 -3 -4 -8 -10 -11 -5 -3 -10 -1 -10
4 0 6 5 11 10 11 6 0 10 -2 10 -4z m-125 -58 c-5 -41 -4 -49 5 -36 6 10 10 24
9 30 -3 25 1 38 12 38 5 0 7 -6 3 -12 -5 -7 -8 -23 -8 -37 -1 -31 -30 -51 -48
-32 -7 8 -8 11 -2 8 8 -5 11 7 9 36 -2 46 1 57 16 57 6 0 7 -21 4 -52z m-47 8
c4 -4 1 -6 -7 -4 -16 3 -34 -59 -20 -68 14 -8 11 -26 -3 -21 -7 2 -12 10 -10
16 1 6 -3 11 -9 11 -5 0 -8 4 -4 9 3 5 1 12 -3 15 -5 3 -7 17 -5 30 4 19 11
24 29 22 13 -2 27 -6 32 -10z m2929 -8 c-3 -8 -6 -5 -6 6 -1 11 2 17 5 13 3
-3 4 -12 1 -19z m-362 -126 c-5 -5 -25 69 -24 88 0 8 7 -7 14 -35 8 -27 12
-51 10 -53z m-2665 84 c0 -3 -4 -8 -10 -11 -5 -3 -10 -1 -10 4 0 6 5 11 10 11
6 0 10 -2 10 -4z m1765 -21 c203 -36 393 -155 510 -320 153 -215 192 -461 114
-717 l-18 -62 22 -26 22 -25 -28 25 c-20 18 -26 30 -22 45 28 88 46 174 43
197 -3 16 0 28 5 28 11 0 1 172 -13 216 -9 26 -9 27 -7 4 1 -14 -3 -31 -7 -39
-6 -10 -5 -12 2 -7 7 4 12 1 12 -9 0 -12 -6 -15 -22 -9 l-23 6 23 -20 c24 -21
21 -48 -4 -38 -8 3 -24 2 -37 -3 -18 -7 -22 -16 -22 -49 0 -30 -3 -38 -11 -31
-8 7 -14 6 -17 -3 -4 -10 -7 -11 -18 0 -18 17 -29 15 -29 -6 0 -11 -9 -27 -20
-37 -11 -10 -20 -14 -20 -9 0 5 -4 3 -9 -4 -7 -11 -13 -9 -30 10 -14 14 -21
17 -19 8 2 -8 10 -21 18 -28 13 -11 12 -12 -9 -6 -15 4 -21 2 -17 -4 10 -16
-24 -7 -36 9 -8 11 -9 10 -4 -4 4 -13 0 -20 -14 -24 -11 -3 -20 -9 -20 -14 0
-15 22 -10 36 9 12 16 13 15 11 -5 -1 -13 -6 -23 -11 -23 -5 0 -18 -8 -29 -17
-15 -13 -21 -15 -24 -5 -6 15 -33 16 -33 1 0 -5 -4 -7 -10 -4 -5 3 -10 2 -10
-3 0 -16 -32 -23 -47 -10 -11 9 -13 8 -11 -3 2 -8 -4 -13 -14 -13 -10 1 -15
-2 -12 -7 3 -5 -2 -19 -12 -31 -10 -15 -14 -17 -11 -6 4 10 2 20 -4 23 -5 4
-9 3 -8 -2 3 -20 -2 -33 -13 -30 -7 1 -13 -4 -14 -10 -1 -7 -2 -16 -3 -19 0
-4 -7 -2 -14 4 -13 11 -66 7 -77 -5 -3 -3 5 -3 18 0 19 4 23 2 20 -15 -2 -12
-9 -24 -17 -26 -10 -3 -12 0 -8 12 4 9 2 16 -3 16 -6 0 -10 -7 -10 -15 0 -8
-5 -15 -11 -15 -5 0 -7 5 -4 10 7 12 3 12 -19 4 -9 -3 -14 -9 -12 -13 3 -4 -4
-12 -14 -19 -14 -9 -21 -9 -26 0 -4 6 -3 8 4 4 6 -3 13 -2 16 3 4 5 2 12 -3
15 -12 8 -34 -21 -26 -34 3 -5 -1 -10 -10 -10 -9 0 -13 5 -10 10 3 6 1 10 -5
10 -6 0 -8 -10 -4 -24 4 -16 1 -25 -11 -30 -11 -4 -14 -2 -9 7 4 6 -3 2 -15
-11 -22 -22 -24 -22 -37 -5 -10 13 -13 14 -9 2 8 -22 -32 -69 -59 -69 -12 0
-26 -3 -30 -7 -4 -4 -13 -8 -19 -8 -7 0 -13 -4 -14 -10 -1 -5 9 -9 23 -8 15 1
22 -2 18 -9 -4 -5 -20 -7 -36 -4 -21 4 -30 1 -35 -10 -3 -8 -12 -13 -19 -10
-8 3 -14 1 -14 -4 0 -6 8 -10 18 -11 18 -1 12 -4 -45 -24 -13 -4 -23 -12 -23
-18 0 -6 -6 -3 -13 7 -8 11 -20 16 -28 13 -11 -4 -10 -6 2 -6 17 -1 34 -41 18
-41 -5 0 -9 5 -9 12 0 6 -3 8 -7 4 -4 -4 6 -18 22 -32 28 -23 28 -24 3 -9 -18
11 -37 14 -62 10 -28 -6 -37 -4 -42 9 -5 13 -9 14 -20 5 -11 -9 -14 -8 -14 5
0 9 -5 16 -10 16 -7 0 -7 -6 0 -20 6 -11 16 -17 26 -13 9 3 14 1 12 -7 -4 -16
110 -75 195 -100 37 -12 102 -25 145 -30 l77 -9 -80 4 c-295 15 -582 241 -679
536 -54 164 -56 329 -4 492 l21 69 251 -251 c165 -164 264 -256 288 -266 54
-22 156 -19 214 6 93 39 177 128 210 221 21 60 21 166 -1 209 -9 19 -132 150
-273 291 l-255 256 44 13 c139 38 293 47 424 24z m-1752 -2 c-18 -7 -16 -23 2
-23 8 0 15 -6 15 -12 0 -9 4 -8 10 2 6 9 10 11 10 3 0 -7 6 -10 14 -7 7 3 16
-2 20 -11 3 -9 2 -13 -4 -10 -6 3 -10 2 -10 -3 0 -17 13 -22 29 -10 10 8 9 4
-3 -10 -11 -12 -24 -22 -30 -22 -6 0 -5 4 2 9 11 7 11 9 -2 14 -9 4 -15 11
-14 16 2 5 -1 9 -7 10 -5 1 -10 -3 -10 -8 0 -5 -4 -13 -9 -18 -5 -4 -6 -3 -2
4 11 20 -16 27 -31 8 -12 -17 -13 -17 -13 -2 0 9 5 17 10 17 12 0 9 22 -5 33
-11 7 12 27 30 26 6 0 4 -3 -2 -6z m3127 -67 c19 -8 29 -15 22 -16 -22 0 -66
27 -92 57 l-25 28 30 -27 c17 -15 46 -34 65 -42z m-2988 -21 c3 -13 1 -22 -3
-19 -5 3 -9 -3 -9 -13 0 -15 -2 -16 -10 -3 -6 10 -6 16 0 18 6 2 10 12 10 23
0 27 7 24 12 -6z m3486 -2 c-81 -2 -216 -2 -300 0 -84 1 -18 3 147 3 165 0
234 -2 153 -3z m-3633 -45 c6 -13 17 -22 24 -20 7 1 9 -2 6 -9 -5 -7 -10 -8
-18 0 -7 7 -14 5 -23 -7 -11 -15 -13 -12 -11 20 2 44 8 47 22 16z m35 18 c0
-2 -7 -7 -16 -10 -8 -3 -12 -2 -9 4 6 10 25 14 25 6z m21 -53 c-12 -20 -14
-14 -5 12 4 9 9 14 11 11 3 -2 0 -13 -6 -23z m2669 -13 c6 -11 8 -20 6 -20 -3
0 -10 9 -16 20 -6 11 -8 20 -6 20 3 0 10 -9 16 -20z m-2580 0 c0 -5 -2 -10 -4
-10 -3 0 -8 5 -11 10 -3 6 -1 10 4 10 6 0 11 -4 11 -10z m-79 -23 c-10 -9 -11
-8 -5 6 3 10 9 15 12 12 3 -3 0 -11 -7 -18z m-1 -28 c0 -14 -17 -10 -23 5 -4
10 -1 13 9 9 7 -3 14 -9 14 -14z m2755 -69 c27 -27 47 -50 44 -50 -3 0 -27 23
-54 50 -27 28 -47 50 -44 50 3 0 27 -22 54 -50z m-471 -461 c-4 -7 0 -9 12 -5
26 8 46 -7 38 -28 -6 -17 -8 -16 -20 5 -7 13 -13 19 -14 14 0 -6 -10 -12 -22
-12 -18 -2 -20 0 -8 7 13 9 13 10 0 10 -13 0 -13 1 0 10 20 13 23 12 14 -1z
m-2387 -186 c-2 -21 -4 -6 -4 32 0 39 2 55 4 38 2 -18 2 -50 0 -70z m1980 -95
c-3 -8 -6 -5 -6 6 -1 11 2 17 5 13 3 -3 4 -12 1 -19z m-240 -140 c-3 -8 -6 -5
-6 6 -1 11 2 17 5 13 3 -3 4 -12 1 -19z m-186 -136 c-7 -2 -18 1 -23 6 -8 8
-4 9 13 5 13 -4 18 -8 10 -11z m-91 -38 c0 -8 -19 -13 -24 -6 -3 5 1 9 9 9 8
0 15 -2 15 -3z m-1093 -166 c-3 -8 -6 -5 -6 6 -1 11 2 17 5 13 3 -3 4 -12 1
-19z m1498 -48 c-11 -5 -29 -8 -40 -8 -16 0 -15 2 5 8 34 11 60 11 35 0z m-72
-17 c-7 -2 -19 -2 -25 0 -7 3 -2 5 12 5 14 0 19 -2 13 -5z m-75 -10 c-16 -2
-40 -2 -55 0 -16 2 -3 4 27 4 30 0 43 -2 28 -4z"/>
<path d="M3795 7690 c3 -5 10 -10 16 -10 5 0 9 5 9 10 0 6 -7 10 -16 10 -8 0
-12 -4 -9 -10z"/>
<path d="M3860 7690 c-12 -8 -11 -10 8 -10 12 0 22 5 22 10 0 13 -11 13 -30 0z"/>
<path d="M4128 7693 c7 -3 16 -2 19 1 4 3 -2 6 -13 5 -11 0 -14 -3 -6 -6z"/>
<path d="M4210 7691 c0 -4 11 -6 25 -3 14 2 25 6 25 8 0 2 -11 4 -25 4 -14 0
-25 -4 -25 -9z"/>
<path d="M4385 7690 c4 -6 11 -8 16 -5 14 9 11 15 -7 15 -8 0 -12 -5 -9 -10z"/>
<path d="M4447 7689 c7 -7 15 -10 18 -7 3 3 -2 9 -12 12 -14 6 -15 5 -6 -5z"/>
<path d="M4494 7688 c-3 -4 5 -5 17 -3 30 6 36 14 9 12 -12 -1 -24 -5 -26 -9z"/>
<path d="M4580 7690 c8 -5 20 -10 25 -10 6 0 3 5 -5 10 -8 5 -19 10 -25 10 -5
0 -3 -5 5 -10z"/>
<path d="M4640 7690 c0 -5 5 -10 10 -10 6 0 10 5 10 10 0 6 -4 10 -10 10 -5 0
-10 -4 -10 -10z"/>
<path d="M4670 7690 c0 -5 5 -10 10 -10 6 0 10 5 10 10 0 6 -4 10 -10 10 -5 0
-10 -4 -10 -10z"/>
<path d="M5950 7538 c0 -12 3 -17 8 -12 4 5 11 12 15 15 5 3 2 9 -7 12 -12 5
-16 0 -16 -15z"/>
<path d="M4900 7386 c0 -2 8 -10 18 -17 15 -13 16 -12 3 4 -13 16 -21 21 -21
13z"/>
<path d="M4974 7373 c2 -10 6 -17 10 -16 15 3 16 11 2 22 -12 10 -14 9 -12 -6z"/>
<path d="M5890 7386 c0 -2 8 -10 18 -17 15 -13 16 -12 3 4 -13 16 -21 21 -21
13z"/>
<path d="M5631 7364 c0 -11 3 -14 6 -6 3 7 2 16 -1 19 -3 4 -6 -2 -5 -13z"/>
<path d="M4650 7350 c0 -5 -26 -11 -57 -13 l-58 -3 66 -2 c53 -2 66 1 66 13 0
8 -4 15 -9 15 -4 0 -8 -4 -8 -10z"/>
<path d="M4708 7353 c6 -2 18 -2 25 0 6 3 1 5 -13 5 -14 0 -19 -2 -12 -5z"/>
<path d="M4767 7353 c-14 -13 -7 -23 16 -22 17 1 18 2 4 6 -9 2 -15 9 -12 14
7 10 1 12 -8 2z"/>
<path d="M4880 7347 c0 -9 12 -14 32 -15 l31 -1 -28 15 c-34 17 -35 17 -35 1z"/>
<path d="M5125 7350 c3 -5 -31 -11 -87 -13 -51 -1 -5 -3 102 -3 107 0 177 1
155 3 -22 3 -46 10 -54 16 -12 9 -13 9 -7 0 5 -10 -4 -13 -34 -13 -25 0 -39 4
-35 10 3 6 2 10 -4 10 -5 0 -12 -6 -14 -12 -4 -10 -6 -10 -6 0 -1 6 -6 12 -12
12 -5 0 -8 -4 -4 -10z"/>
<path d="M5448 7353 c7 -3 16 -2 19 1 4 3 -2 6 -13 5 -11 0 -14 -3 -6 -6z"/>
<path d="M5680 7334 c0 -8 5 -12 10 -9 6 4 8 11 5 16 -9 14 -15 11 -15 -7z"/>
<path d="M5750 7340 c-9 -6 -10 -10 -3 -10 6 0 15 5 18 10 8 12 4 12 -15 0z"/>
<path d="M3758 7333 c7 -3 16 -2 19 1 4 3 -2 6 -13 5 -11 0 -14 -3 -6 -6z"/>
<path d="M3808 7333 c7 -3 16 -2 19 1 4 3 -2 6 -13 5 -11 0 -14 -3 -6 -6z"/>
<path d="M4078 7333 c6 -2 18 -2 25 0 6 3 1 5 -13 5 -14 0 -19 -2 -12 -5z"/>
<path d="M4238 7333 c18 -2 45 -2 60 0 15 2 0 4 -33 4 -33 0 -45 -2 -27 -4z"/>
<path d="M4348 7333 c12 -2 32 -2 45 0 12 2 2 4 -23 4 -25 0 -35 -2 -22 -4z"/>
<path d="M4428 7333 c6 -2 18 -2 25 0 6 3 1 5 -13 5 -14 0 -19 -2 -12 -5z"/>
<path d="M4488 7333 c7 -3 16 -2 19 1 4 3 -2 6 -13 5 -11 0 -14 -3 -6 -6z"/>
<path d="M4698 7333 c12 -2 30 -2 40 0 9 3 -1 5 -23 4 -22 0 -30 -2 -17 -4z"/>
<path d="M3281 7163 c-10 -26 -10 -27 4 -9 8 11 15 23 15 28 0 15 -7 8 -19
-19z"/>
<path d="M2901 7154 c0 -11 3 -14 6 -6 3 7 2 16 -1 19 -3 4 -6 -2 -5 -13z"/>
<path d="M3230 7051 c0 -6 4 -13 10 -16 6 -3 7 1 4 9 -7 18 -14 21 -14 7z"/>
<path d="M3243 6975 c0 -27 2 -38 4 -22 2 15 2 37 0 50 -2 12 -4 0 -4 -28z"/>
<path d="M3194 6801 c4 -5 0 -11 -6 -14 -7 -3 -3 -4 9 -4 17 1 19 4 11 14 -12
15 -22 18 -14 4z"/>
<path d="M2898 6713 c7 -3 16 -2 19 1 4 3 -2 6 -13 5 -11 0 -14 -3 -6 -6z"/>
<path d="M3216 6708 c5 -7 0 -9 -14 -6 -13 4 -20 2 -19 -6 1 -6 -4 -10 -10 -8
-18 3 -16 -13 2 -28 13 -11 19 -10 33 6 20 23 27 54 12 54 -6 0 -8 -5 -4 -12z
m-13 -33 c-3 -9 -8 -14 -10 -11 -3 3 -2 9 2 15 9 16 15 13 8 -4z"/>
<path d="M2926 6685 c-3 -9 0 -15 9 -15 9 0 12 6 9 15 -4 8 -7 15 -9 15 -2 0
-5 -7 -9 -15z"/>
<path d="M3030 6669 c0 -5 5 -7 10 -4 6 3 10 8 10 11 0 2 -4 4 -10 4 -5 0 -10
-5 -10 -11z"/>
<path d="M2891 6654 c0 -11 3 -14 6 -6 3 7 2 16 -1 19 -3 4 -6 -2 -5 -13z"/>
<path d="M3036 6638 c3 -5 10 -6 15 -3 13 9 11 12 -6 12 -8 0 -12 -4 -9 -9z"/>
<path d="M3004 6632 c13 -22 16 -61 6 -67 -10 -6 -15 8 -10 30 1 6 -4 5 -11
-2 -9 -9 -9 -15 0 -26 15 -18 53 -16 58 3 4 13 3 13 -7 0 -10 -12 -11 -11 -8
10 3 16 -3 33 -15 45 -11 11 -17 14 -13 7z"/>
<path d="M3073 6625 c0 -8 4 -12 9 -9 5 3 6 10 3 15 -9 13 -12 11 -12 -6z"/>
<path d="M3110 6633 c8 -3 23 -12 32 -20 15 -13 18 -12 28 6 11 22 -3 31 -16
10 -4 -8 -9 -8 -17 0 -6 6 -18 11 -26 10 -14 0 -14 -1 -1 -6z"/>
<path d="M3100 6609 c0 -5 5 -7 10 -4 6 3 10 8 10 11 0 2 -4 4 -10 4 -5 0 -10
-5 -10 -11z"/>
<path d="M2924 6598 c-3 -4 2 -8 10 -8 8 0 17 4 20 8 3 5 -2 9 -10 9 -8 0 -17
-4 -20 -9z"/>
<path d="M2975 6530 c-3 -6 1 -7 9 -4 18 7 21 14 7 14 -6 0 -13 -4 -16 -10z"/>
<path d="M5205 5631 c-3 -5 -2 -12 3 -15 5 -3 9 1 9 9 0 17 -3 19 -12 6z"/>
<path d="M4694 5470 c-12 -5 -26 -15 -30 -22 -6 -11 -5 -11 8 0 11 9 18 10 23
2 3 -5 12 -10 18 -9 8 0 8 2 -1 6 -10 4 -10 8 -1 19 13 16 12 16 -17 4z"/>
<path d="M4925 5440 c-3 -5 1 -10 10 -10 9 0 13 5 10 10 -3 6 -8 10 -10 10 -2
0 -7 -4 -10 -10z"/>
<path d="M4677 5333 c-10 -9 -9 -23 1 -23 5 0 9 7 9 15 0 17 -1 18 -10 8z"/>
<path d="M4646 5293 c-6 -14 -5 -15 5 -6 7 7 10 15 7 18 -3 3 -9 -2 -12 -12z"/>
<path d="M4430 5149 c0 -5 -4 -8 -9 -5 -5 4 -7 -3 -4 -14 4 -16 9 -18 19 -9 7
6 10 17 7 25 -6 17 -13 18 -13 3z"/>
<path d="M4380 5136 c0 -2 7 -7 16 -10 8 -3 12 -2 9 4 -6 10 -25 14 -25 6z"/>
<path d="M4250 5020 c0 -5 5 -10 11 -10 5 0 7 5 4 10 -3 6 -8 10 -11 10 -2 0
-4 -4 -4 -10z"/>
<path d="M2920 6356 c0 -2 7 -7 16 -10 8 -3 12 -2 9 4 -6 10 -25 14 -25 6z"/>
</g>
</svg>
